<?xml version="1.0" encoding="utf-8"?>
<!-- Generator: Adobe Illustrator 21.1.0, SVG Export Plug-In . SVG Version: 6.00 Build 0)  -->
<svg version="1.1" id="Layer_1" xmlns="http://www.w3.org/2000/svg" xmlns:xlink="http://www.w3.org/1999/xlink" x="0px" y="0px"
	 width="589.1px" height="262.4px" viewBox="0 0 589.1 262.4" style="enable-background:new 0 0 589.1 262.4;" xml:space="preserve"
	>
<style type="text/css">
	.st0{fill:none;}
	.st1{fill:#231F20;}
	.st2{fill:#E3F2FD;}
	.st3{fill:#D7E9F4;}
	.st4{fill:#0E9C57;}
	.st5{opacity:0.11;fill:url(#SVGID_1_);}
	.st6{fill:#5B5B5B;}
	.st7{fill:#3E2723;}
	.st8{fill:#2D1B19;}
	.st9{fill:#C68855;}
	.st10{fill:#4184F3;}
	.st11{fill:#1967D2;}
	.st12{fill:#66260C;}
	.st13{fill:#5E240B;}
	.st14{fill:#FFB25E;}
	.st15{fill:#D1322A;}
	.st16{fill:#EA4335;}
	.st17{fill:#FFE082;}
	.st18{fill:#DB9951;}
	.st19{fill:#FFFFFF;}
	.st20{fill:#4D4D4D;}
	.st21{fill:#E3A35F;}
	.st22{fill:#BF8950;}
	.st23{fill:#4F1D09;}
	.st24{fill:#0C854A;}
	.st25{fill:#C9873F;}
	.st26{fill:#FFCC3F;}
	.st27{fill:#E8EAED;}
	.st28{fill:#E0E0E0;}
	.st29{fill:#174EA6;}
	.st30{fill:none;stroke:#9C6F3D;stroke-linecap:round;stroke-linejoin:round;stroke-miterlimit:10;}
	.st31{fill:#9C6F3D;}
	.st32{fill:#DA4336;}
</style>
<pattern  y="262.4" width="28.8" height="28.8" patternUnits="userSpaceOnUse" id="_x31_0_dpi_20_x25_" viewBox="1.4 -30.2 28.8 28.8" style="overflow:visible;">
	<g>
		<rect x="1.4" y="-30.2" class="st0" width="28.8" height="28.8"/>
		<g>
			<circle class="st1" cx="30.2" cy="-1.4" r="1.4"/>
			<circle class="st1" cx="15.8" cy="-1.4" r="1.4"/>
			<circle class="st1" cx="30.2" cy="-15.8" r="1.4"/>
			<circle class="st1" cx="15.8" cy="-15.8" r="1.4"/>
			<circle class="st1" cx="8.6" cy="-8.6" r="1.4"/>
			<circle class="st1" cx="23" cy="-8.6" r="1.4"/>
			<circle class="st1" cx="8.6" cy="-23" r="1.4"/>
			<circle class="st1" cx="23" cy="-23" r="1.4"/>
		</g>
		<g>
			<circle class="st1" cx="1.4" cy="-1.4" r="1.4"/>
			<circle class="st1" cx="1.4" cy="-15.8" r="1.4"/>
		</g>
		<g>
			<circle class="st1" cx="30.2" cy="-30.2" r="1.4"/>
			<circle class="st1" cx="15.8" cy="-30.2" r="1.4"/>
		</g>
		<g>
			<circle class="st1" cx="1.4" cy="-30.2" r="1.4"/>
		</g>
	</g>
</pattern>
<path class="st2" d="M193.8,180c4.4,13.6,4.7,28.5,0.7,42.2l0,2.6H380l0-2.6c-4-13.7-3.7-28.6,0.7-42.2c2.9-8.9,7.5-17.3,8.7-26.5
	c0.9-6.7-0.5-14.2-5.9-18.3c-5.2-4-12.4-3.6-18.9-3.1c-13.6,1.1-27.3,1.8-41,2.1v-1.6c-12.1,0.8-24.2,1.4-36.3,1.7
	c-12.1-0.3-24.2-0.8-36.3-1.7v1.6c-13.7-0.3-27.3-1-41-2.1c-6.5-0.5-13.8-0.9-18.9,3.1c-5.3,4.1-6.7,11.7-5.9,18.3
	C186.3,162.8,191,171.2,193.8,180z"/>
<path class="st3" d="M366.9,219c1.7-6.8-0.5-14-2.7-20.7c-0.3-0.9-0.6-2-0.3-2.9c0.4-1.1,1.4-1.7,2.3-2.4c4.8-3.8,5.9-10.6,5.5-16.7
	c-0.8-15.1-7.3-29.2-10.3-44c-12.6,0.9-25.3,1.6-37.9,1.9v-1.6c-1.4,0.1-2.8,0.2-4.1,0.3c-1.7,4-3,8.3-4.3,12.4
	c-3.8,11.5-9,22.5-13.2,34c-4.1,11.4-7.2,23.5-6.4,35.6c0.2,3.2,0.7,6.4,1.4,9.5c0,0.2,0.1,0.3,0.1,0.5h67.2
	C365.4,223,366.3,221.1,366.9,219z"/>
<path class="st4" d="M250.6,178.1c-2.1,15.3-2.5,31.2-2,46.7h71.6c1.6-12.9,3-24.4,4.9-38.4c6.5-0.2,25.4,1.4,34.5-6.4
	c-4.1-16.4-6-37.2-13.1-51.7c-2.2-4.4-5.6-7.8-9.5-10.2c-10.1-6.1-28.9-7.2-40.6-5.3c-11.2,1.9-22.4,4.4-33.3,8.7
	c-3.4,1.3-6.7,2.9-9.6,5.4c-4.5,4-7.3,10.2-9.7,16.2c-2.8,6.8-5.4,13.8-7.9,20.8C238.1,171.3,243.5,177.2,250.6,178.1z"/>
<pattern  id="SVGID_1_" xlink:href="#_x31_0_dpi_20_x25_" patternTransform="matrix(1.2056 0.2605 -0.2605 1.2056 -541.4849 3792.6848)">
</pattern>
<path class="st5" d="M250.6,178.1c-2.1,15.3-2.5,31.2-2,46.7h71.6c1.6-12.9,3-24.4,4.9-38.4c6.5-0.2,25.4,1.4,34.5-6.4
	c-4.1-16.4-6-37.2-13.1-51.7c-2.2-4.4-5.6-7.8-9.5-10.2c-10.1-6.1-28.9-7.2-40.6-5.3c-11.2,1.9-22.4,4.4-33.3,8.7
	c-3.4,1.3-6.7,2.9-9.6,5.4c-4.5,4-7.3,10.2-9.7,16.2c-2.8,6.8-5.4,13.8-7.9,20.8C238.1,171.3,243.5,177.2,250.6,178.1z"/>
<path class="st6" d="M206.3,192l-8.9-2c-1.4-0.3-2.3-1.7-2-3.2l3.8-17.5c0.3-1.4,1.7-2.3,3.2-2l8.9,2c1.4,0.3,2.3,1.7,2,3.2
	l-3.8,17.5C209.1,191.4,207.7,192.3,206.3,192z"/>
<path class="st2" d="M40.1,215.6c0.9,3.1,1.4,6.4,1.6,9.6H84c0.1-11.4,0-22.7-0.4-34.1c-0.3-10.2,0.4-22.9-5.5-31.8
	c-13.3-19.9-49.1-12.6-52,11.7c-1.1,9.1,1.6,18.2,5.6,26.4C34.6,203.4,38.3,209.2,40.1,215.6z"/>
<path class="st3" d="M53.6,225.3h12.6c8-20.3,8.7-43,12.6-64.8c-0.2-0.4-0.4-0.7-0.7-1.1c-4.8-7.3-12.7-10.9-20.8-11.4
	c-1.8,11.1,0.5,22.8,1.2,34.2c0.7,10.4,0,21-2.1,31.2C55.8,217.4,54.8,221.4,53.6,225.3z"/>
<path class="st7" d="M127.3,65.4c0,0-4.3-14-26.5-12.4c-23.5,1.8-29.6,29.2-20.5,44.5c5.7,9.6,16,11.8,16,11.8l32.2-32.4L127.3,65.4
	z"/>
<path class="st8" d="M78.8,69.1c-3.8,9.2-3.3,20.5,1.5,28.4c5.7,9.6,16,11.8,16,11.8l5.4-5.4C83.9,95.1,79.7,78,78.8,69.1z"/>
<path class="st9" d="M106.2,115.8c5.7,1.3,11.5,1.8,17.3,1.2c1.9-0.2,3.7-0.7,5.4-1.5c2.7-1.5,3.9-3.7,4.5-14.4
	c0.1-2,1.2-4.9,2.4-6.4c0.7-0.9,1.2-1.8,1-2.9c-0.1-0.7-0.5-1.2-0.9-1.7c-1.6-2.1-3.5-4.1-4-6.7c-0.2-1.3-0.1-2.7,0-4
	c0.2-3.1,0.3-3.8-0.4-6.9c-0.6-2.8-1.9-5.4-4.2-7.1c0,0-0.3,5.7-1.6,7.6c-1.2,1.7-10.1,7.5-15.3,10.8c-2.3,1.5-3.9,3.8-4.5,6.5
	c-0.6,2.7-1.6,5.7-3.4,5.7c-1.7,0-1.2-5.4-5.9-6.2c-2.4-0.4-4.8,0.6-6,2.6c-1.7,2.8-1,6.3,0.9,8.7c1.6,2,3.8,3.3,6.2,4
	c-1.5,5.3-5.8,16.3-8,21.3c4.2,3.5,11.1,6.2,16.4,7.3l3.7-17.2"/>
<path class="st10" d="M117.8,225.2c1.4-13.2,2.3-34.1,3.8-40c1.6-6,2.7-12.3,0.8-18.3c-0.9-2.8-2.4-5.4-3.6-8.1
	c-4.5-10.3-11.2-21.1-10.5-32.1c-5.3-0.3-14.8-2.7-18.7-5.8c-4.3,1.2-7.4,4.4-10.2,7.6c-19.9,23.1-18.6,66.5-25.1,96.7H117.8z"/>
<path class="st11" d="M92.9,196.5c0,0,17.7,13.3,37.7,9s-23.5-17.3-23.5-17.3l-9.5,0.3"/>
<path class="st2" d="M477.5,225.8h76.3c-0.1-4.3-0.7-8.6-1.8-12.8c-0.8-3.1-1.8-6.3-1.5-9.5c0.5-5.2,4.5-9.3,7.7-13.5
	c7.4-9.8,11.2-22.4,9.8-34.5c-0.9-7.7-3.9-15.1-7.8-21.9c-3.4-5.9-7.7-11.4-13.6-14.9c-9.8-5.8-22.1-4.7-33.4-3.4l-35,38.8
	C482.5,177.9,482.2,202.3,477.5,225.8z"/>
<path class="st3" d="M512.5,225.8c0.7-4,0.8-8.2,0.5-12.3c-0.2-2.4-0.6-4.8-0.4-7.2c0.2-2.4,1.3-4.8,3.2-6.1
	c1.6-1.1,3.7-1.3,5.6-1.6c9.5-1.3,24.9-8.1,23-20.1c-0.8-5-5-9.1-8.5-12.5c-4.4-4.2-7.9-9.2-12.3-13.4c-7.5-7.3-19.3-10.2-28.9-6.3
	c-7,2.9-12,8.7-15.3,15.6c2.9,21.2,2.2,42.8-2,63.8H512.5z"/>
<g>
	<path class="st12" d="M491.1,168.3c9.2,13,42.9,33.6,55.3,8.2c1.9-3.8,2.3-13.4-0.6-18.7c-5.7-10.3-13.4-8.8-18.1-15.3
		c-4.4-6.3-2.5-14.9-4.2-22.3c-1.5-6.7-5.9-12.4-12-15.5c-3.6-1.9-7.8-2.9-10.7-5.7c-4.2-4-4.2-10.5-5.3-16.4
		c-2.3-12.6-10.1-24.2-21.4-30.3c-11.3-6.1-25.6-6.3-36.8,0c-4.8,2.7-9.2,7.1-10.1,12.6s1.9,10.7,5.7,14.7"/>
	<path class="st13" d="M444,97l47.1,71.2c3.4,4.6,9.7,10.1,17,14.3c1.7-1.7,2.9-3.8,3.8-5.9c2.5-6.1,1.9-13,0-19.3
		c-2.5-8.2-7.4-15.5-13.9-21c-6.7-5.7-15.3-9.7-19.5-17.4c-3.4-6.3-3.6-14.5-8.2-20L444,97z"/>
	<path class="st14" d="M404.5,121.4c-0.4-1.3-0.6-2.7-0.6-4.2c-0.2-0.8-0.2-1.9-0.2-2.7c0.4-8.6,3.2-27.7,3.2-27.7v0.2
		c0.2-0.8,1.1-12.2,1.9-21.4c0-0.2,0-0.6,0-0.8c0.6-9.2-2.3-16-1.7-16.6c0.2-0.4,0.4-1.9,0.4-3.4c-0.4-1.7-0.4-3.4-0.2-5
		c0.4-2.9,2.1-6.1,3.4-8.6c0-0.4,0.2-0.8,0-1.1c-0.2-0.2-1.5,0.2-1.9,0.2c-2.1,0.6-3.4,2.9-4.4,4.8l-15.1,18.7l3.4,3.4
		c0,0,2.7,2.8,2.5,7.2c-3,13.1-7.8,26.1-10.7,39.2c-1.3,5.5-2.5,10.9-1.5,16.2c0,5.7,1.3,11.3,4.8,15.5c2.5,2.9,5.7,5,8.8,7.1
		c4.8,3.2,9.9,6.5,15.3,9c1.7-5,4-10.1,6.7-14.7v-5C414.2,128.3,406.4,126.7,404.5,121.4z"/>
	<path class="st15" d="M433.3,165.9c0,0-20.4-6.5-27.5-11.1c-7.1-4.6,4.8-30.5,4.8-30.5c13.2,10.7,36.6,10.7,36.6,10.7"/>
	<path class="st16" d="M432.6,197.3c0,7.4,0,14.9,0,22.3c0,2.3-0.2,4.4-0.4,6.3h64.3c1.5-13.4,2.3-26.9,2.5-40.3
		c0.2-13-0.2-26.5-5.3-38.2c-6.9-16.6-24.2-29.2-39.7-18.5c-14.1,9.9-21.2,21.4-23.5,39.5C429.9,173.5,432.6,191.8,432.6,197.3z"/>
	<path class="st15" d="M459.5,225.8H473c11.8-8.6,16.6-25.4,16.6-25.4l-12.2-4.2l-6.5,6.1C470.9,202.3,460.6,218.1,459.5,225.8z"/>
	<g>
		<path class="st14" d="M450.5,115.7l2.3,16.6c5-0.6,11.8-2.7,16-5.7c-1.7-4.8-4.8-15.5-5.9-20.6c2.3-0.6,4.4-1.7,6.1-3.4
			c1.7-1.7,2.5-4.2,2.1-6.5c-0.4-2.3-2.5-4.4-4.8-4.6c-1.7-0.2-3.4,0.6-5,1.1c-1.5,0.4-3.6,0.6-4.8-0.4c-1.7-1.5-1.5-4.4-2.3-6.5
			c-1.3-3.2-4.8-4.6-7.6-6.7c-4.8-3.6-6.7-7.1-8.6-12.8c-2.3,1.3-3.8,3.6-4.4,6.3c-0.8,2.9-0.8,3.6-0.8,6.5c0,1.3,0,2.7-0.2,4
			c-0.6,2.5-2.5,4.2-4.2,6.1c-0.4,0.4-0.8,0.8-1.1,1.5c-0.4,1.3,0.6,2.7,1.5,3.8c1.3,1.3,1.1,3.8,1.1,5.5c-0.2,8.8,0.6,11.6,2.5,13
			c1.9,1.5,4.4,2.1,6.9,2.5c4.8,0.8,9.9,0.6,14.9,0"/>
		<path d="M440,86.5c-0.6,1.5-0.8,2.9-0.8,4c0,0.4,0,0.6,0.2,1.1c0.2,0.4,0.4,0.6,0.8,0.6s0.6-0.4,0.8-0.8c0.4-1.1,0.4-2.3,0.6-3.4
			C441.9,85.9,440.4,85.7,440,86.5z"/>
		
			<ellipse transform="matrix(0.1355 -0.9908 0.9908 0.1355 296.0702 550.5808)" class="st17" cx="463.5" cy="105.6" rx="2.1" ry="2.1"/>
		<path class="st18" d="M451.6,122.2c1.9-0.8,4-4.8,5.9-5.9c0.6-0.4,1.3-1.1,1.1-1.7c-0.2-0.6-1.3-0.6-1.9-0.4
			c-2.1,0.6-4,1.1-6.1,1.7C451.1,117,451.1,121,451.6,122.2z"/>
		<path class="st14" d="M426.6,90.1c-0.2,0.2-0.4,0.4-0.4,0.8c-0.2,0.6,0.2,1.1,0.6,1.5c0.4,0.6,1.1,1.1,1.5,1.7
			c0,0,1.5,0.8,1.7,0.8s-0.6-0.8-0.4-1.3c1.7-3.4,2.9-7.4,3.2-11.1L426.6,90.1z"/>
		<path class="st14" d="M431.6,92.6c0,0,0.4,3.8-1.5,2.9c-1.9-0.8-4-3.8-4-3.8"/>
	</g>
</g>
<path class="st15" d="M468.8,184.4c5.9,4,13.2,8.4,20.4,8c1.5-6.5,2.5-13.2,3.2-20c0.6-7.1,0.2-15.3-4.8-20.4
	c-1.7-1.7-3.8-2.9-6.1-2.7c-2.7,0.2-4.8,2.3-6.7,4.4c-5.3,6.1-7.6,11.8-10.1,19.3C463.5,175.8,466.5,182.8,468.8,184.4z"/>
<path class="st15" d="M467.7,201.7c4.4,1.5,9.2,2.5,13.9,3.2c2.9,0.4,6.3,0.4,8.8-1.3c2.7-1.9,4-5.3,4.8-8.4
	c2.9-12.6,2.3-26.3-1.9-38.5C482.2,169.5,475.3,186.7,467.7,201.7z"/>
<path class="st14" d="M449,225.8h20.8c1.1-1.9,2.3-4,3.4-5.9c5-9.2,10.1-18.7,13.2-28.6c2.9-8.8-6.3-12.8-14.1-16.4
	c-0.2-0.2-0.6-0.4-1.1-0.2c-0.2,0.2-0.4,0.6-0.4,0.8C464.8,192.6,457.6,209.4,449,225.8z"/>
<path class="st16" d="M469.8,183.4c5.5,4.4,12.6,9.5,19.8,9.5c2.1-6.3,3.6-12.8,4.6-19.5c1.3-7.1,1.5-15.3-3.4-20.8
	c-1.5-1.7-3.6-3.2-5.9-3.2c-2.7,0-5,1.9-6.9,3.8c-5.7,5.7-10.3,12.6-13.4,20C463.5,175.8,467.7,181.5,469.8,183.4z"/>
<path class="st19" d="M437.1,101.9c-1.3,0-3.2-0.2-4.4,0.2c-2.7,1.1-0.6,4.6,1.1,5.5c1.9,0.8,4,0.4,5.7-0.6s2.7-2.9,3.4-4.8
	c0-0.4,0-0.8-0.2-0.8h-0.2C440.6,101.6,438.9,101.9,437.1,101.9z"/>
<path class="st14" d="M402.4,52.3c0,0,2.5,5,4,0.2c1.5-4.6,0.4-9,0.4-9"/>
<g id="Layer_2">
	<path class="st20" d="M399.2,57.1l6.5-24.2c0.4-1.3-0.2-2.5-1.5-2.7l-10.5-2.9c-1.3-0.4-3.2-0.8-3.4,0.4l-6.5,24.2
		c-0.4,1.3,0.8,3.6,2.1,3.8l10.5,2.9C397.8,59,399,58.2,399.2,57.1z"/>
	<polygon class="st6" points="389.4,31.7 384.3,50.2 399.9,54.4 404.9,35.9 	"/>
	<path class="st14" d="M389.1,38.4c-0.2-0.8-0.8-1.3-0.6-2.1c0-0.2,0.4-2.5,0.2-2.5c-1.1-0.2-1.7,0.6-2.3,1.5
		c-0.6,0.8-0.6,1.9-0.6,2.9c0.2,0.4,0.2,0.8,0,1.1c0,0.2-0.2,0.2-0.4,0.4c-0.8,0.8-0.8,2.1-0.8,3.4c0,0.4,0,0.8-0.8,1.3
		c-0.2,0.2-0.2,0.4-0.4,0.6c-0.2,0.2,0,0.6,0,1.1c0.4,2.1,1.3,4.4,2.5,6.3c0.2,0.4,0.6,0.8,1.1,0.8c0.4,0,0.8-0.6,0.8-0.8
		c0-0.2,0-0.6-0.2-1.1c-0.4-1.5-0.8-3.2-1.3-4.6c0.4,0.4,0.8,1.1,1.5,1.3c0.4,0.2,0.8,0.2,1.1-0.2c0.2-0.2,0-0.4,0-0.6
		c-0.6-2.1-1.3-4.2-2.3-6.1c0.6,1.3,1.7,2.3,2.7,2.9c0.6,0.2,1.5,0.6,2.1,0.4c0.2,0,0.4,0,0.4-0.2c0.2-0.2,0-0.4,0-0.6
		C390.8,41.8,389.9,40.1,389.1,38.4z"/>
</g>
<path class="st21" d="M305.9,79.1c-0.5,8.3-1.8,21.8-3.2,33.4c-0.5,4.2-0.6,16.5-13.2,15.5c-9.4-0.7-7.4-8.9-6.8-13.9
	c0.8-6.1,1-10.4,1-10.4c-6,0.9-13.1,4.1-17.6-0.6c-2.1-2.2-2.2-5.5-2.1-8.6c0.8-13.3,2-30.9,4.9-43.9l39.8,6.3L305.9,79.1z"/>
<path class="st22" d="M283.5,105.8c3.2-0.9,6.6-1.3,10-1.1c-0.4,2.3-4.7,8.7-10.9,9.5C282.7,111,283.3,107.8,283.5,105.8z"/>
<path class="st22" d="M282.8,57.2c0.4,2,2,3.5,3.6,4.8c2.1,1.6,4.4,2.8,6.9,3.8c1.5,0.6,3,1.1,4.1,2.2c2.7,2.8,1.1,7.6,2.7,11.2
	c1.8-6.4,4.3-12.5,3.4-19.1C296.6,58.2,290,58.1,282.8,57.2z"/>
<path class="st21" d="M307.9,85.5c2.4,1.1,5.5,0.4,7.3-1.6s2.3-5,1.4-7.5c-0.3-0.8-1.9-4.5-8-3.3"/>
<path class="st23" d="M283.7,58.2c-3.8,4-9.4,5.7-14.9,6.3c-7.6,0.9-16.2-0.2-21.1-6c-5.5-6.4-4.2-17.2,2.2-22.8s16.7-5.6,23.6-0.7
	c2.7,1.9,5.3,4.6,8.6,5c5.2,0.6,11.6-2.5,16.7-1.6c3.6,0.6,7.2,2,9.8,4.5c3.9,3.7,5.3,9.3,5,14.6c-0.3,5.3-2,10.4-3.8,15.4
	c-2.9,8.3-1.3,18.6-6.6,25.7c-3.1,4.2-8.4,6.1-13.4,7.6c-5.8,1.8-11.7,3.5-17.8,3.3c-6.1-0.2-12.3-2.7-15.7-7.8
	c-1.2-1.9-2.1-4.2-1.7-6.4c0.4-2.2,1.9-4.1,3.6-5.4c4.6-3.4,10.7-3.7,16.4-3.4c5.7,0.3,11.6,1.1,17-0.7c2.4-0.8,5.6-3.7,6.7-6
	c1.2-2.6,1.5-5.5,1.8-8.3c0.3-2.6,0.5-5.2,0.8-7.8c-1.1-1.7-2.5-2.3-4.4-2.5s-4,0.2-5.9-0.2C288,60.6,285.2,60.5,283.7,58.2z"/>
<path d="M270.7,74.5c-0.2,1-0.5,2-0.5,3c0,0.4,0.1,0.8,0.5,0.9c0.3,0.1,0.7,0,0.9-0.2c0.2-0.2,0.3-0.5,0.4-0.8
	c0.3-0.8,0.7-2.2,0.6-3.5C272.4,73,271,72.8,270.7,74.5z"/>
<path d="M287.6,75.7c-0.2,1-0.5,2-0.5,3c0,0.4,0.1,0.8,0.5,0.9c0.3,0.1,0.7,0,0.9-0.2c0.2-0.2,0.3-0.5,0.4-0.8
	c0.3-0.8,0.7-2.2,0.6-3.5C289.4,74.2,288,74,287.6,75.7z"/>
<path class="st19" d="M278.9,92c0.6,0,1.5,0.2,1.4,0.8c0,0.2-0.2,0.3-0.3,0.5c-1.3,1.3-3.2,1.9-5,1.6c-0.7-0.1-1.4-0.3-1.9-0.8
	c-0.5-0.5-0.6-1.3-0.2-1.9L278.9,92z"/>
<path class="st19" d="M281.2,176.7l-12.2,0.8c-1.3,0.1-2.5-0.9-2.6-2.3l-1.9-27.9c-0.1-1.3,0.9-2.5,2.3-2.6l12.2-0.8
	c1.3-0.1,2.5,0.9,2.6,2.3l1.9,27.9C283.5,175.4,282.5,176.6,281.2,176.7z"/>
<path class="st24" d="M318.4,196.5c-0.8-10.8-0.3-26.8,0.4-37.6c0.2-3.3,0.4-6,1.6-9.1c1.5,11.7,3,23.3,4.5,35
	c0.3,2.1-0.3,4.6-0.5,6.7c-0.2,1.4-0.5,8.7-0.5,10.2c-0.8-0.6-2.9-1.6-3.7-2.2C319.3,198.9,318.5,197.5,318.4,196.5z"/>
<path class="st21" d="M356,182.4c1.2,10.7,0.6,18.2-1.6,28.7c-3,14.1-19.7,17.9-31.9,11.9c-8.4-4.1-13.9-12.6-19.6-20.1
	c-6.3-8.1-9.8-17.5-15.2-26.3c-3.1,0.1-7.4-1.5-10.3-2.7c-1.7,0.4-2.3,0.6-4.5,1.5c-3.4,1.2-4-0.3-3.1-1c0.9-0.7,4.1-2.1,4.8-2.9
	c-1.8,0.5-5.5,2.2-7.3,2.6c-0.6,0.2-1.3,0.3-1.6-0.2c-0.3-0.5-0.1-1.2,0.3-1.6c1.9-1.7,8.5-4.8,8.5-4.8c-3.5,0.1-4.4,1.6-7,2.2
	c-0.9,0.2-2,0.4-2.6-0.3c-0.1-0.7,0.5-1.3,1.1-1.7c2.3-1.8,5-3.9,7.8-4.9c-4.1-0.4-8.3-0.6-12.4-0.9c-0.7,0-1.5-0.4-1.4-1
	c0.1-0.4,0.6-0.6,1-0.8c5.2-1.7,10.5-2.7,15.9-3c4.8-0.3,9.5,1.4,12.9,4.7c10.5,10.4,21,20.9,31.6,31.3c1.9,1.9,4.7,3,7.2,4.2
	c-0.2-3.6-0.7-7.4-1.2-11C342.1,186.5,342.2,186.3,356,182.4z"/>
<path class="st24" d="M250.6,178.1c0,0,0.5-4.4,0.9-6.1c1.5-8.2,3-16.3,4.5-24.5c0,0-8.7,23.4-9.7,29.3
	C246.2,176.8,247.8,177.7,250.6,178.1z"/>
<path class="st22" d="M328.3,197.4c3.2,1.2,7.3,2.7,10.2,4.6c-2-4.8-5.6-8.2-10.6-9.7C328.1,194.7,328.1,195.7,328.3,197.4z"/>
<path class="st25" d="M279.9,84.7c-1.3,0.4-2.7,0.5-4,0.4c-0.7-0.1-1.5-0.2-1.8-0.8c-0.2-0.4-0.1-0.9-0.1-1.3
	c0.7-4.4,2.5-8.7,5.1-12.4c0,0-3.3,11.9-2.2,12.5C278.1,83.7,279.9,84.7,279.9,84.7z"/>
<g>
	<g>
		<path class="st26" d="M364.3,84.8l1.3-0.7c1.6-0.8,1.6-3,0-3.8l-1.3-0.7c-0.4-0.2-0.7-0.5-0.9-0.9l-0.7-1.3c-0.8-1.6-3-1.6-3.8,0
			l-0.7,1.3c-0.2,0.4-0.5,0.7-0.9,0.9l-1.3,0.7c-1.6,0.8-1.6,3,0,3.8l1.3,0.7c0.4,0.2,0.7,0.5,0.9,0.9l0.7,1.3c0.8,1.6,3,1.6,3.8,0
			l0.7-1.3C363.5,85.4,363.9,85.1,364.3,84.8z"/>
	</g>
</g>
<g>
	<g>
		<path class="st27" d="M557.7,101l1.2-0.6c1.5-0.8,1.5-2.9,0-3.6l-1.2-0.6c-0.4-0.2-0.7-0.5-0.9-0.9l-0.6-1.2
			c-0.8-1.5-2.9-1.5-3.6,0l-0.6,1.2c-0.2,0.4-0.5,0.7-0.9,0.9l-1.2,0.6c-1.5,0.8-1.5,2.9,0,3.6l1.2,0.6c0.4,0.2,0.7,0.5,0.9,0.9
			l0.6,1.2c0.8,1.5,2.9,1.5,3.6,0l0.6-1.2C557,101.5,557.3,101.2,557.7,101z"/>
	</g>
</g>
<rect x="154.2" y="126.2" transform="matrix(0.7071 -0.7071 0.7071 0.7071 -46.6931 149.0988)" class="st28" width="4.8" height="9.5"/>
<path class="st14" d="M385.7,38.2c0,0,0.3,0.7-0.7,1.8s3.4-0.5,3.4-0.5l-1.4-1.1l-0.6-0.9"/>
<path class="st14" d="M384.5,43.3c0,0-1.9,0.4-1.2,2.9s2.4-2,2.4-2L384.5,43.3z"/>
<ellipse transform="matrix(3.560043e-02 -0.9994 0.9994 3.560043e-02 30.9921 128.5409)" class="st7" cx="82.1" cy="48.2" rx="12.3" ry="12.3"/>
<g>
	<path class="st11" d="M108.4,160.8c-3.6-8.5-6.5-14.7-13-21.2c-2.2-2.2-4.9-4.4-8-4.4c-2.6,0-5,1.6-6.7,3.5
		c-5.4,6.2-5.1,15.4-3.9,23.6c1.2,7.6,2.9,15,5.3,22.3c8.1,0,16.2-5.6,22.5-10.8C107.1,171.8,109.7,163.7,108.4,160.8z"/>
	<path class="st11" d="M74.5,143.6c-4.9,14-5.6,29.3-2,43.7c0.9,3.6,2.3,7.5,5.4,9.6c2.9,1.9,6.6,1.8,10.1,1.4
		c5.4-0.6,10.6-1.8,15.7-3.6C95,177.6,87,158.1,74.5,143.6z"/>
	<path class="st9" d="M180.2,183.3c-12.9,0.5-48.1,2.5-51.5,1.8c-3.1-0.6-6-2.2-8.9-3.8c-8.2-4.8-14-13.2-21.2-19.6l-14.2,19.6
		c5.9,7.4,18.4,24.7,47.2,26c8.7,0.4,17.3-1.8,25.8-4c7.6-2,15.2-3.8,22.8-5.2V183.3z"/>
	<path class="st10" d="M107.2,162.2c-3.6-8.5-8.8-16.3-15.3-22.8c-2.2-2.2-4.9-4.4-8-4.4c-2.6,0-5,1.6-6.7,3.5
		c-5.4,6.2-5.1,15.4-3.9,23.6c1.2,7.6,2.9,15,5.3,22.3c8.1,0,16.2-5.6,22.5-10.8C103.6,171.7,108.5,165.2,107.2,162.2z"/>
</g>
<path d="M121.8,88c0,1.2-0.1,2.5,0.2,3.6c0.1,0.4,0.3,0.9,0.8,1c0.4,0.1,0.8-0.1,1-0.4s0.3-0.7,0.3-1c0.1-1.1,0.2-2.8-0.3-4.3
	C123.5,85.8,121.8,85.9,121.8,88z"/>
<path class="st30" d="M95.3,94.3c-0.7,2,0.2,4.5,2.2,5.5"/>
<ellipse transform="matrix(0.9983 -5.828599e-02 5.828599e-02 0.9983 -5.9534 5.8285)" class="st17" cx="96.9" cy="105" rx="2.1" ry="2.1"/>
<path class="st31" d="M109.7,116.5c-2.1-0.8-4.2-1.5-6.3-2.3c-0.7-0.3-1.8-0.4-2.1,0.3c-0.3,0.7,0.8,2.2,1.3,2.8c2,2.2,4,3.7,6,4.7
	L109.7,116.5z"/>
<path class="st19" d="M122.3,101.7c-0.1,0-0.3,0-0.4,0c-0.1,0.1-0.1,0.2-0.2,0.3c-0.4,1.2,0.5,2.4,1.4,3.3c0.8,0.8,1.6,1.6,2.6,2
	c1.7,0.8,6.2-0.3,4.9-3C129.8,102.9,124,102,122.3,101.7z"/>
<path class="st7" d="M111.9,53.6c0,0,17.3,2,22.1,15l-3.2,1.4c0,0-2.7-4.2-3.5-4.6"/>
<path class="st18" d="M465.7,101.5c-0.2,0-0.4-0.1-0.4-0.3c-0.1-0.2,0-0.5,0.2-0.7c1.7-0.9,2.6-3.1,1.9-4.9c-0.1-0.3,0-0.5,0.3-0.6
	c0.3-0.1,0.5,0,0.6,0.3c0.8,2.3-0.2,5-2.4,6.1C465.9,101.5,465.8,101.5,465.7,101.5z"/>
<path class="st14" d="M383.4,108c0,0-4.9,17.7,4.3,27.3"/>
<path class="st9" d="M174.6,183.7c6.9-0.5,11.9-0.4,15-2.2c1.6-0.9,2.7-2.4,3.8-3.9c1.4-2,2.8-4.1,4.1-6.2c0.6-0.9,2-0.6,2.2,0.4
	c0.3,2.4-0.2,5-0.9,7.5c-0.2,0.7,0.3,1.4,1,1.5c2.3,0.1,8.7,1.2,10.9,1.8c0.6,0.2,0.9,0.8,0.8,1.4c-0.2,0.7-0.1,1.4,0.2,2
	c0.3,0.7,0.9,1.3,1,2c0,1.2-1.4,2-1.7,3.2c-0.2,0.9-0.4,1.1,0,1.9c0.4,0.8,0.6,2-0.2,2.5c-0.6,0.5-0.8,1-1.4,1.4
	c-0.4,0.2-0.6,0.6-0.9,1c-1.1,1.3-7.1,1.3-8.8,1.4c-1.7,0.1-3.5-0.3-5.2-0.5c-6.1-1-12.3-1.1-18.5-0.4c-1.1,0.1-2.3,0.3-3.4,0.1
	c-1.1-0.2-2-0.7-3-1.3c-3.4-1.9-6.6-4.2-9.6-6.6"/>
<polyline class="st14" points="407.4,44.7 408.5,57.3 403.5,53.4 404,46.7 "/>
<path class="st21" d="M248.6,224.8c-0.4-11.3-0.4-29.6,2-46.7c-8.9-1.1-12.8-9.5-12.8-9.5c-6,18.9-10.8,37.7-10.2,56.3H248.6z"/>
<path class="st22" d="M248.6,224.8c0-17.7,2-46.7,2-46.7c-2.7-0.5-4.4-1.3-4.4-1.3c-3.2,18.7-1.3,36.9,0.6,48.1H248.6z"/>
<rect x="38.9" y="68.1" transform="matrix(0.7071 -0.7071 0.7071 0.7071 -37.1703 52.3172)" class="st4" width="11.3" height="5.8"/>
<path class="st2" d="M45,133.4c1.2-0.9,2-2.1,2.3-3.6c0.3-1.5-0.1-3-0.9-4.2c-0.9-1.2-2.1-2-3.6-2.3c-1.5-0.3-3,0.1-4.2,0.9
	c-0.1,0.1-0.2,0.2-0.3,0.3c-0.2,0.2-0.3,0.5-0.4,0.7l0,0c-0.1,0.4,0,0.8,0.3,1.2c0.5,0.7,1.5,0.9,2.2,0.4c1.1-0.8,2.7-0.5,3.5,0.6
	c0.8,1.1,0.5,2.7-0.6,3.5c-0.3,0.2-0.6,0.6-0.6,1c-0.1,0.4,0,0.8,0.3,1.2C43.3,133.8,44.3,133.9,45,133.4z"/>
<rect x="400.9" y="189.2" transform="matrix(0.7071 -0.7071 0.7071 0.7071 -16.8043 344.3556)" class="st2" width="12.7" height="6.5"/>
<rect x="168" y="62.9" transform="matrix(0.882 -0.4712 0.4712 0.882 -12.3016 88.7386)" class="st32" width="6.2" height="12.1"/>
<circle class="st10" cx="535.7" cy="55" r="4.7"/>
<g id="XMLID_2_">
	<path class="st2" d="M153.3,232.5l-17.6,3.1c0,0,3.1,8.5,17.6,8.5c14.4,0,17.6-8.4,17.6-8.4L153.3,232.5z"/>
	<ellipse id="XMLID_5_" class="st3" cx="153.3" cy="235.6" rx="17.6" ry="3.1"/>
	<path class="st2" d="M167.2,222.1h-1.6c0-1.6-0.2-2.7-0.2-2.7c0-2.4-5.4-4.3-12.2-4.3c-6.7,0-12.2,1.9-12.2,4.3
		c0,0-2.8,18.5,12.2,18.5c5.4,0,8.5-2.4,10.2-5.5h3.7c2.8,0,5.1-2.3,5.1-5.1S170.1,222.1,167.2,222.1z M167.2,229.5h-2.5
		c0.5-1.5,0.7-3.1,0.9-4.5h1.7c1.2,0,2.2,1,2.2,2.2S168.5,229.5,167.2,229.5z"/>
	<ellipse id="XMLID_4_" class="st2" cx="153.3" cy="219.4" rx="12.2" ry="4.3"/>
	<ellipse id="XMLID_3_" class="st3" cx="153.3" cy="219.5" rx="8.9" ry="3.1"/>
</g>
</svg>
